solid bracket
  facet normal 0 -1 0
    outer loop
      vertex 0 0 0
      vertex 50 0 0
      vertex 50 0 20
    endloop
  endfacet
  facet normal 0 -1 0
    outer loop
      vertex 0 0 0
      vertex 50 0 20
      vertex 0 0 20
    endloop
  endfacet
  facet normal 1 0 0
    outer loop
      vertex 50 0 0
      vertex 50 20 0
      vertex 50 20 20
    endloop
  endfacet
  facet normal 1 0 0
    outer loop
      vertex 50 0 0
      vertex 50 20 20
      vertex 50 0 20
    endloop
  endfacet
  facet normal 0 1 0
    outer loop
      vertex 50 20 0
      vertex 30 20 0
      vertex 30 20 20
    endloop
  endfacet
  facet normal 0 1 -0
    outer loop
      vertex 50 20 0
      vertex 30 20 20
      vertex 50 20 20
    endloop
  endfacet
  facet normal 0.707107 0.707107 0
    outer loop
      vertex 30 20 0
      vertex 20 30 0
      vertex 20 30 20
    endloop
  endfacet
  facet normal 0.707107 0.707107 -0
    outer loop
      vertex 30 20 0
      vertex 20 30 20
      vertex 30 20 20
    endloop
  endfacet
  facet normal 1 0 0
    outer loop
      vertex 20 30 0
      vertex 20 50 0
      vertex 20 50 20
    endloop
  endfacet
  facet normal 1 0 0
    outer loop
      vertex 20 30 0
      vertex 20 50 20
      vertex 20 30 20
    endloop
  endfacet
  facet normal 0 1 0
    outer loop
      vertex 20 50 0
      vertex 0 50 0
      vertex 0 50 20
    endloop
  endfacet
  facet normal 0 1 -0
    outer loop
      vertex 20 50 0
      vertex 0 50 20
      vertex 20 50 20
    endloop
  endfacet
  facet normal -1 0 0
    outer loop
      vertex 0 50 0
      vertex 0 0 0
      vertex 0 0 20
    endloop
  endfacet
  facet normal -1 0 0
    outer loop
      vertex 0 50 0
      vertex 0 0 20
      vertex 0 50 20
    endloop
  endfacet
  facet normal 0 0 -1
    outer loop
      vertex 0 0 0
      vertex 50 20 0
      vertex 50 0 0
    endloop
  endfacet
  facet normal 0 0 1
    outer loop
      vertex 0 0 20
      vertex 50 0 20
      vertex 50 20 20
    endloop
  endfacet
  facet normal 0 0 -1
    outer loop
      vertex 0 0 0
      vertex 30 20 0
      vertex 50 20 0
    endloop
  endfacet
  facet normal 0 0 1
    outer loop
      vertex 0 0 20
      vertex 50 20 20
      vertex 30 20 20
    endloop
  endfacet
  facet normal 0 0 -1
    outer loop
      vertex 0 0 0
      vertex 20 30 0
      vertex 30 20 0
    endloop
  endfacet
  facet normal 0 0 1
    outer loop
      vertex 0 0 20
      vertex 30 20 20
      vertex 20 30 20
    endloop
  endfacet
  facet normal 0 0 -1
    outer loop
      vertex 0 0 0
      vertex 20 50 0
      vertex 20 30 0
    endloop
  endfacet
  facet normal 0 0 1
    outer loop
      vertex 0 0 20
      vertex 20 30 20
      vertex 20 50 20
    endloop
  endfacet
  facet normal 0 0 -1
    outer loop
      vertex 0 0 0
      vertex 0 50 0
      vertex 20 50 0
    endloop
  endfacet
  facet normal 0 0 1
    outer loop
      vertex 0 0 20
      vertex 20 50 20
      vertex 0 50 20
    endloop
  endfacet
endsolid bracket
