solid wedge
  facet normal 0 -1 0
    outer loop
      vertex 0 0 0
      vertex 40 0 0
      vertex 40 0 30
    endloop
  endfacet
  facet normal 0 -1 0
    outer loop
      vertex 0 0 0
      vertex 40 0 30
      vertex 0 0 30
    endloop
  endfacet
  facet normal 0.447214 0.894427 0
    outer loop
      vertex 40 0 0
      vertex 0 20 0
      vertex 0 20 30
    endloop
  endfacet
  facet normal 0.447214 0.894427 -0
    outer loop
      vertex 40 0 0
      vertex 0 20 30
      vertex 40 0 30
    endloop
  endfacet
  facet normal -1 0 0
    outer loop
      vertex 0 20 0
      vertex 0 0 0
      vertex 0 0 30
    endloop
  endfacet
  facet normal -1 0 0
    outer loop
      vertex 0 20 0
      vertex 0 0 30
      vertex 0 20 30
    endloop
  endfacet
  facet normal 0 0 -1
    outer loop
      vertex 0 0 0
      vertex 0 20 0
      vertex 40 0 0
    endloop
  endfacet
  facet normal 0 0 1
    outer loop
      vertex 0 0 30
      vertex 40 0 30
      vertex 0 20 30
    endloop
  endfacet
endsolid wedge
